<svg width="1140" height="380" viewBox="160 110 825 155" fill="none" xmlns="http://www.w3.org/2000/svg">
<path d="M317.069 159.348C339.223 156.657 359.379 172.397 362.138 194.542C364.897 216.689 349.22 236.894 327.083 239.721C304.848 242.561 284.537 226.799 281.765 204.557C278.994 182.314 294.817 162.051 317.069 159.348ZM327.183 224.596C356.714 216.299 350.543 169.858 316.823 174.357C307.136 177.663 301.181 182.436 298.851 192.924C294.724 211.501 307.447 228.02 327.183 224.596Z" fill="#020202"/>
<path d="M174.757 128.702C180.454 128.323 188.954 128.578 194.858 128.572C205.722 157.84 218.448 187.728 230.122 216.805C242.375 187.806 253.644 157.795 265.393 128.607L285.076 128.593C282.989 133.941 280.67 139.404 278.49 144.732C274.753 155.088 268.707 168.75 264.395 178.999C256.079 198.545 247.901 218.149 239.864 237.811L220.265 237.775C215.569 227.995 209.846 212.981 205.46 202.536C195.098 177.978 184.864 153.366 174.757 128.702Z" fill="#020202"/>
<path d="M931.771 159.726C960.47 157.725 972.353 177.349 971.928 203.563L913.811 203.677C917.207 222.603 931.079 230.647 949.674 222.18C950.824 221.654 955.306 216.619 956.582 215.322L958.072 215.867L969.462 222.426C957.61 241.754 929.1 244.562 911.575 231.592C893.966 218.557 892.733 189.194 905.98 172.711C912.682 164.371 921.253 160.915 931.771 159.726ZM955.585 191.617C952.871 179.586 946.583 172.297 933.278 173.362C922.251 174.883 916.22 180.564 914.357 191.668L937.141 191.678L955.585 191.617Z" fill="#020202"/>
<path d="M713.04 159.718C723.291 158.11 736.203 162.156 743.273 169.896C752.221 179.694 753.644 190.903 753.272 203.573L695.463 203.637C697.835 222.534 713.797 230.459 731.358 222.293C734.591 220.789 736.008 217.891 738.401 215.489L739.515 215.581C743.315 218.066 747.299 220.245 751.256 222.475C745.719 232.944 736.218 237.113 724.677 238.958C675.707 246.791 660.14 177.163 704.47 161.314C707.041 160.394 710.227 160.045 713.04 159.718ZM737.084 191.626C734.633 179.155 727.768 172.154 714.321 173.355C703.179 175.141 697.836 180.581 695.668 191.662L718.404 191.682L737.084 191.626Z" fill="#020202"/>
<path d="M506.58 159.726C535.816 157.835 548.066 176.434 547.472 203.566L489.703 203.635C490.873 212.323 493.963 219.461 502.366 223.365C511.408 227.62 522.134 225.891 529.381 219.011C530.483 217.954 531.764 215.63 533.055 215.318C537.076 217.76 541.133 220.143 545.226 222.466C544.502 223.668 543.725 224.84 542.901 225.978C537.254 233.686 529.911 237.072 520.369 238.761C481.306 245.678 459.675 204.415 481.103 173.53C486.806 165.311 496.453 161.094 506.58 159.726ZM531.087 191.659C529.082 179.47 521.741 172.117 508.799 173.347C497.251 174.955 492.32 180.474 489.876 191.667L513.577 191.677L531.087 191.659Z" fill="#020202"/>
<path d="M850.051 159.718C864.594 158.079 878.608 163.721 884.555 177.632C879.779 179.417 874.976 181.119 870.142 182.735C866.253 174.953 861.577 173.105 852.901 173.224C847.048 173.305 839.48 175.902 839.805 183.113C840.178 189.095 849.426 191.605 854.958 192.183C876.588 194.443 896.517 207.371 880.897 230.244C876.509 236.669 864.343 238.884 856.17 239.322C840.54 239.415 827.571 235.27 821.377 219.986C826.201 218.265 831.061 216.622 835.942 215.06C839.968 224.059 847.741 226.54 857.105 226.006C860.726 225.8 865.371 224.621 867.775 221.731C869.245 219.968 869.922 217.678 869.649 215.4C868.646 207.657 852.685 206.053 844.907 204.689C824.694 201.142 815.971 183.756 830.122 167.447C834.016 162.96 843.479 160.597 850.051 159.718Z" fill="#020202"/>
<path d="M656.345 161.596L673.959 161.505C672.117 166.222 670.023 170.988 668.034 175.657C662.895 188.471 657.117 201.636 651.747 214.389C649.086 220.698 644.494 232.271 641.491 237.807L625.525 237.772C614.608 213.02 603.917 186.613 593.267 161.591L611.454 161.514C618.55 179.873 626.297 200.63 633.933 218.628C636.458 213.108 639.507 204.611 641.759 198.849L656.345 161.596Z" fill="#020202"/>
<path d="M563.791 127.672L580.067 127.665C580.413 163.951 580.434 201.518 580.056 237.797L563.859 237.766C563.387 201.416 563.807 164.1 563.791 127.672Z" fill="#020202"/>
<path d="M801.816 160.204C806.97 159.717 809.237 160.067 814.318 161.134C814.297 166.308 813.961 171.972 813.756 177.18C801.968 173.808 787.198 176.28 785.834 189.37C784.385 203.305 785.272 223.7 785.241 237.779L774.229 237.771L768.959 237.793L768.991 161.552L785.277 161.507L785.361 170.582C790.72 163.984 793.575 161.924 801.816 160.204Z" fill="#020202"/>
<path d="M410.101 191.006L425.729 190.997L425.738 206.526L441.076 206.518L441.155 221.887C446.411 221.873 451.838 221.783 457.078 221.851L457.072 237.766L440.984 237.78C440.983 232.579 440.902 227.181 440.987 221.999L425.655 222.017L425.673 206.647C420.563 206.64 415.223 206.55 410.135 206.645L410.089 221.963C405.595 221.968 399.159 222.174 394.824 221.922C394.606 217.392 394.793 211.247 394.794 206.592C399.842 206.497 404.995 206.516 410.053 206.48L410.101 191.006Z" fill="#020202"/>
<path d="M378.977 159.706L394.92 159.617L394.969 175.658L410.059 175.662L410.101 191.006L394.791 191.008L394.759 175.752L378.952 175.734L378.977 159.706Z" fill="#020202"/>
<path d="M440.965 159.693L457.079 159.63L457.093 175.736L441.037 175.716L440.965 159.693Z" fill="#020202"/>
<path d="M378.973 221.92C384.081 221.725 389.669 221.874 394.824 221.922C395.074 227.266 394.952 232.443 394.871 237.789L378.995 237.747L378.973 221.92Z" fill="#020202"/>
<path d="M425.743 175.582L441.037 175.716C441.058 180.672 441.182 186.076 441.032 190.992L425.729 190.997C425.643 185.955 425.736 180.648 425.743 175.582Z" fill="#020202"/>
</svg>
